<svg width="96" height="105" viewBox="0 0 96 105" fill="none" xmlns="http://www.w3.org/2000/svg">
<path d="M48 0.798553C21.5 0.798553 0 24.0923 0 52.8032C0 81.5142 21.5 104.808 48 104.808C74.5 104.808 96 81.5142 96 52.8032C96 24.0923 74.5 0.798553 48 0.798553ZM46.5 83.1393C45.5111 83.1393 44.5444 82.8216 43.7221 82.2264C42.8999 81.6311 42.259 80.7851 41.8806 79.7952C41.5022 78.8054 41.4031 77.7162 41.5961 76.6653C41.789 75.6145 42.2652 74.6493 42.9645 73.8917C43.6637 73.134 44.5546 72.6181 45.5245 72.4091C46.4944 72.2001 47.4998 72.3074 48.4134 72.7174C49.327 73.1274 50.1079 73.8217 50.6573 74.7125C51.2068 75.6034 51.5 76.6507 51.5 77.7222C51.5 79.1589 50.9732 80.5368 50.0355 81.5527C49.0979 82.5686 47.8261 83.1393 46.5 83.1393ZM54.86 55.5118C50.8075 58.4588 50.25 61.1592 50.25 63.6376C50.25 64.6433 49.8812 65.6078 49.2249 66.3189C48.5685 67.0301 47.6783 67.4296 46.75 67.4296C45.8217 67.4296 44.9315 67.0301 44.2751 66.3189C43.6187 65.6078 43.25 64.6433 43.25 63.6376C43.25 57.7031 45.77 52.9847 50.955 49.2117C55.775 45.7068 58.5 43.4857 58.5 38.6022C58.5 35.2815 56.75 32.7598 53.1275 30.8936C52.275 30.4548 50.3775 30.0268 48.0425 30.0566C45.1125 30.0972 42.8375 30.8556 41.085 32.3833C37.78 35.2652 37.5 38.4017 37.5 38.4478C37.4778 38.9458 37.3654 39.4341 37.169 39.885C36.9726 40.3359 36.6962 40.7404 36.3555 41.0756C36.0149 41.4107 35.6166 41.6699 35.1835 41.8383C34.7504 42.0067 34.2909 42.081 33.8312 42.057C33.3716 42.033 32.9209 41.9111 32.5047 41.6983C32.0885 41.4856 31.7151 41.1861 31.4058 40.817C31.0965 40.4479 30.8573 40.0164 30.7018 39.5472C30.5464 39.0779 30.4778 38.5801 30.5 38.0821C30.5275 37.4239 30.95 31.4949 36.6925 26.4894C39.67 23.8946 43.4575 22.5457 47.9425 22.4861C51.1175 22.4455 54.1 23.0279 56.1225 24.0625C62.175 27.1638 65.5 32.3345 65.5 38.6022C65.5 47.7653 59.8475 51.8796 54.86 55.5118Z" fill="#06406A"/>
</svg>
